<mxfile host="Electron" modified="2024-03-31T04:28:57.081Z" agent="Mozilla/5.0 (Windows NT 10.0; Win64; x64) AppleWebKit/537.36 (KHTML, like Gecko) draw.io/24.1.0 Chrome/120.0.6099.109 Electron/28.1.0 Safari/537.36" etag="xP-GKLmppoFfyi_mJFDL" version="24.1.0" type="device">
  <diagram name="Página-1" id="940FiQqv4F4WBD6eZH7Y">
    <mxGraphModel dx="1420" dy="1999" grid="1" gridSize="10" guides="1" tooltips="1" connect="1" arrows="1" fold="1" page="1" pageScale="1" pageWidth="827" pageHeight="1169" background="#CCE5FF" math="0" shadow="0">
      <root>
        <mxCell id="0" />
        <mxCell id="1" parent="0" />
        <mxCell id="PimUQgPsYDkUUoaS-gTF-1" value="&lt;p style=&quot;line-height: 90%;&quot;&gt;&lt;b style=&quot;font-size: 16px;&quot;&gt;&lt;font style=&quot;font-size: 16px;&quot; color=&quot;#000000&quot; face=&quot;Comic Sans MS&quot;&gt;16&lt;br&gt;&lt;br&gt;Hacer un programa para ingresar por teclado las cuatro notas de los exámenes obtenidas por un alumno y luego emitir uno solo de los cartel de acuerdo a las siguientes condiciones: &lt;br&gt;&lt;br&gt;- “Promociona”, sí obtuvo en los cuatro exámenes nota 7 o más. &lt;br&gt;&lt;br&gt;- “Rinde examen final”, si obtuvo nota 4 o más en por lo menos tres exámenes. &lt;br&gt;&lt;br&gt;- “Recupera Parciales”, si obtuvo nota 4 o más en por lo menos uno de los exámenes. &lt;br&gt;&lt;br&gt;- “Recursa la materia”, si no aprobó ningún examen parcial.&lt;/font&gt;&lt;/b&gt;&lt;/p&gt;" style="text;whiteSpace=wrap;html=1;fontFamily=Architects Daughter;fontSource=https%3A%2F%2Ffonts.googleapis.com%2Fcss%3Ffamily%3DArchitects%2BDaughter;" parent="1" vertex="1">
          <mxGeometry x="30" y="-20" width="620" height="230" as="geometry" />
        </mxCell>
        <mxCell id="_jDsAqriuLOLaJhzw_Vn-57" value="" style="group" vertex="1" connectable="0" parent="1">
          <mxGeometry x="110" y="270" width="1010" height="1020" as="geometry" />
        </mxCell>
        <mxCell id="PimUQgPsYDkUUoaS-gTF-9" value="" style="group;aspect=fixed;" parent="_jDsAqriuLOLaJhzw_Vn-57" vertex="1" connectable="0">
          <mxGeometry x="220" width="40" height="40" as="geometry" />
        </mxCell>
        <mxCell id="PimUQgPsYDkUUoaS-gTF-3" value="" style="strokeWidth=2;html=1;shape=mxgraph.flowchart.start_2;whiteSpace=wrap;rounded=0;labelBackgroundColor=none;strokeColor=#000000;align=center;verticalAlign=middle;fontFamily=Helvetica;fontSize=12;fontColor=default;fillColor=#d5e8d4;aspect=fixed;" parent="PimUQgPsYDkUUoaS-gTF-9" vertex="1">
          <mxGeometry width="40" height="40" as="geometry" />
        </mxCell>
        <mxCell id="PimUQgPsYDkUUoaS-gTF-7" value="&lt;b&gt;&lt;font color=&quot;#000000&quot; face=&quot;Comic Sans MS&quot; style=&quot;font-size: 17px;&quot;&gt;I&lt;/font&gt;&lt;/b&gt;" style="text;strokeColor=none;align=center;fillColor=none;html=1;verticalAlign=middle;whiteSpace=wrap;rounded=0;fontFamily=Architects Daughter;fontSource=https%3A%2F%2Ffonts.googleapis.com%2Fcss%3Ffamily%3DArchitects%2BDaughter;aspect=fixed;" parent="PimUQgPsYDkUUoaS-gTF-9" vertex="1">
          <mxGeometry x="5" y="5" width="30" height="30" as="geometry" />
        </mxCell>
        <mxCell id="PimUQgPsYDkUUoaS-gTF-10" value="" style="group;aspect=fixed;" parent="_jDsAqriuLOLaJhzw_Vn-57" vertex="1" connectable="0">
          <mxGeometry x="220" y="980" width="40" height="40" as="geometry" />
        </mxCell>
        <mxCell id="PimUQgPsYDkUUoaS-gTF-4" value="" style="strokeWidth=2;html=1;shape=mxgraph.flowchart.start_2;whiteSpace=wrap;rounded=0;labelBackgroundColor=none;strokeColor=#000000;align=center;verticalAlign=middle;fontFamily=Helvetica;fontSize=12;fontColor=default;fillColor=#d5e8d4;aspect=fixed;" parent="PimUQgPsYDkUUoaS-gTF-10" vertex="1">
          <mxGeometry width="40" height="40" as="geometry" />
        </mxCell>
        <mxCell id="PimUQgPsYDkUUoaS-gTF-8" value="&lt;b&gt;&lt;font color=&quot;#000000&quot; face=&quot;Comic Sans MS&quot; style=&quot;font-size: 17px;&quot;&gt;F&lt;/font&gt;&lt;/b&gt;" style="text;strokeColor=none;align=center;fillColor=none;html=1;verticalAlign=middle;whiteSpace=wrap;rounded=0;fontFamily=Architects Daughter;fontSource=https://fonts.googleapis.com/css?family=Architects+Daughter;aspect=fixed;" parent="PimUQgPsYDkUUoaS-gTF-10" vertex="1">
          <mxGeometry x="5" y="5" width="30" height="30" as="geometry" />
        </mxCell>
        <mxCell id="_jDsAqriuLOLaJhzw_Vn-2" value="" style="group;aspect=fixed;" vertex="1" connectable="0" parent="_jDsAqriuLOLaJhzw_Vn-57">
          <mxGeometry x="130" y="70" width="220" height="40" as="geometry" />
        </mxCell>
        <mxCell id="PimUQgPsYDkUUoaS-gTF-5" value="" style="shape=trapezoid;perimeter=trapezoidPerimeter;whiteSpace=wrap;html=1;fixedSize=1;rounded=0;labelBackgroundColor=none;strokeColor=#121211;strokeWidth=2;align=center;verticalAlign=middle;fontFamily=Helvetica;fontSize=12;fontColor=default;fillColor=#d5e8d4;direction=west;container=0;aspect=fixed;" parent="_jDsAqriuLOLaJhzw_Vn-2" vertex="1">
          <mxGeometry width="220" height="40" as="geometry">
            <mxRectangle x="-1020" y="-650" width="50" height="40" as="alternateBounds" />
          </mxGeometry>
        </mxCell>
        <mxCell id="_jDsAqriuLOLaJhzw_Vn-1" value="&lt;font size=&quot;1&quot; face=&quot;Comic Sans MS&quot; color=&quot;#000000&quot;&gt;&lt;b style=&quot;font-size: 14px;&quot;&gt;nota1, nota2, nota3, nota4&lt;/b&gt;&lt;/font&gt;" style="text;strokeColor=none;align=center;fillColor=none;html=1;verticalAlign=middle;whiteSpace=wrap;rounded=0;fontFamily=Architects Daughter;fontSource=https%3A%2F%2Ffonts.googleapis.com%2Fcss%3Ffamily%3DArchitects%2BDaughter;aspect=fixed;container=0;" vertex="1" parent="_jDsAqriuLOLaJhzw_Vn-2">
          <mxGeometry x="10" width="200" height="40" as="geometry" />
        </mxCell>
        <mxCell id="_jDsAqriuLOLaJhzw_Vn-36" value="" style="line;strokeWidth=2;direction=south;html=1;hachureGap=4;fontFamily=Architects Daughter;fontSource=https://fonts.googleapis.com/css?family=Architects+Daughter;strokeColor=#000000;aspect=fixed;" vertex="1" parent="_jDsAqriuLOLaJhzw_Vn-2">
          <mxGeometry x="105" y="-30" width="10" height="30" as="geometry" />
        </mxCell>
        <mxCell id="_jDsAqriuLOLaJhzw_Vn-6" value="" style="group;aspect=fixed;" vertex="1" connectable="0" parent="_jDsAqriuLOLaJhzw_Vn-57">
          <mxGeometry x="150" y="140" width="180" height="190" as="geometry" />
        </mxCell>
        <mxCell id="_jDsAqriuLOLaJhzw_Vn-4" value="" style="rhombus;whiteSpace=wrap;html=1;rounded=0;labelBackgroundColor=none;strokeColor=#0F140C;strokeWidth=2;align=center;verticalAlign=middle;fontFamily=Helvetica;fontSize=12;fontColor=default;fillColor=#d5e8d4;aspect=fixed;" vertex="1" parent="_jDsAqriuLOLaJhzw_Vn-6">
          <mxGeometry width="180" height="190" as="geometry" />
        </mxCell>
        <mxCell id="_jDsAqriuLOLaJhzw_Vn-5" value="&lt;font color=&quot;#000000&quot; face=&quot;Comic Sans MS&quot;&gt;&lt;b&gt;nota1 &amp;gt;= 7&amp;nbsp;&lt;/b&gt;&lt;/font&gt;&lt;div&gt;&lt;font color=&quot;#000000&quot; face=&quot;Comic Sans MS&quot;&gt;&lt;b&gt;&amp;amp;&amp;amp;&amp;nbsp;&lt;/b&gt;&lt;/font&gt;&lt;/div&gt;&lt;div&gt;&lt;font color=&quot;#000000&quot; face=&quot;Comic Sans MS&quot;&gt;&lt;b&gt;nota2 &amp;gt;= 7&amp;nbsp;&lt;/b&gt;&lt;/font&gt;&lt;/div&gt;&lt;div&gt;&lt;font color=&quot;#000000&quot; face=&quot;Comic Sans MS&quot;&gt;&lt;b&gt;&amp;amp;&amp;amp;&amp;nbsp;&lt;/b&gt;&lt;/font&gt;&lt;/div&gt;&lt;div&gt;&lt;font color=&quot;#000000&quot; face=&quot;Comic Sans MS&quot;&gt;&lt;b&gt;nota3 &amp;gt;= 7&lt;/b&gt;&lt;/font&gt;&lt;/div&gt;&lt;div&gt;&lt;font color=&quot;#000000&quot; face=&quot;Comic Sans MS&quot;&gt;&lt;b&gt;&amp;amp;&amp;amp;&lt;/b&gt;&lt;/font&gt;&lt;/div&gt;&lt;div&gt;&lt;font color=&quot;#000000&quot; face=&quot;Comic Sans MS&quot;&gt;&lt;b&gt;nota4 &amp;gt;= 8&lt;/b&gt;&lt;/font&gt;&lt;/div&gt;" style="text;strokeColor=none;align=center;fillColor=none;html=1;verticalAlign=middle;whiteSpace=wrap;rounded=0;fontFamily=Architects Daughter;fontSource=https://fonts.googleapis.com/css?family=Architects+Daughter;aspect=fixed;" vertex="1" parent="_jDsAqriuLOLaJhzw_Vn-6">
          <mxGeometry x="40" y="35" width="100" height="120" as="geometry" />
        </mxCell>
        <mxCell id="_jDsAqriuLOLaJhzw_Vn-8" value="" style="group;aspect=fixed;" vertex="1" connectable="0" parent="_jDsAqriuLOLaJhzw_Vn-57">
          <mxGeometry y="310" width="150" height="40" as="geometry" />
        </mxCell>
        <mxCell id="PimUQgPsYDkUUoaS-gTF-6" value="" style="shape=trapezoid;perimeter=trapezoidPerimeter;whiteSpace=wrap;html=1;fixedSize=1;rounded=0;labelBackgroundColor=none;strokeColor=#0F140C;strokeWidth=2;align=center;verticalAlign=middle;fontFamily=Helvetica;fontSize=12;fontColor=default;fillColor=#d5e8d4;aspect=fixed;" parent="_jDsAqriuLOLaJhzw_Vn-8" vertex="1">
          <mxGeometry width="150" height="40" as="geometry" />
        </mxCell>
        <mxCell id="_jDsAqriuLOLaJhzw_Vn-7" value="&lt;font color=&quot;#000000&quot; size=&quot;1&quot; face=&quot;Comic Sans MS&quot;&gt;&lt;b style=&quot;font-size: 15px;&quot;&gt;promociona&lt;/b&gt;&lt;/font&gt;" style="text;strokeColor=none;align=center;fillColor=none;html=1;verticalAlign=middle;whiteSpace=wrap;rounded=0;fontFamily=Architects Daughter;fontSource=https%3A%2F%2Ffonts.googleapis.com%2Fcss%3Ffamily%3DArchitects%2BDaughter;aspect=fixed;" vertex="1" parent="_jDsAqriuLOLaJhzw_Vn-8">
          <mxGeometry x="15" y="5" width="120" height="30" as="geometry" />
        </mxCell>
        <mxCell id="_jDsAqriuLOLaJhzw_Vn-16" value="" style="group;aspect=fixed;" vertex="1" connectable="0" parent="_jDsAqriuLOLaJhzw_Vn-57">
          <mxGeometry x="260" y="330" width="397.29999999999995" height="350" as="geometry" />
        </mxCell>
        <mxCell id="_jDsAqriuLOLaJhzw_Vn-9" value="" style="rhombus;whiteSpace=wrap;html=1;rounded=0;labelBackgroundColor=none;strokeColor=#0F140C;strokeWidth=2;align=center;verticalAlign=middle;fontFamily=Helvetica;fontSize=12;fontColor=default;fillColor=#d5e8d4;aspect=fixed;" vertex="1" parent="_jDsAqriuLOLaJhzw_Vn-16">
          <mxGeometry width="397.3" height="350" as="geometry" />
        </mxCell>
        <mxCell id="_jDsAqriuLOLaJhzw_Vn-13" value="&lt;b&gt;&lt;font face=&quot;Comic Sans MS&quot; color=&quot;#000000&quot;&gt;(nota1 &amp;gt;= 4 &amp;amp;&amp;amp; nota2 &amp;gt;= 4 &amp;amp;&amp;amp; nota3 &amp;gt;= 4)&amp;nbsp;&lt;/font&gt;&lt;/b&gt;&lt;div&gt;&lt;b&gt;&lt;font face=&quot;Comic Sans MS&quot; color=&quot;#000000&quot;&gt;||&amp;nbsp;&amp;nbsp;&lt;/font&gt;&lt;/b&gt;&lt;/div&gt;&lt;div&gt;&lt;b&gt;&lt;font face=&quot;Comic Sans MS&quot; color=&quot;#000000&quot;&gt;(nota1 &amp;gt;= 4 &amp;amp;&amp;amp; nota3 &amp;gt;= 4 &amp;amp;&amp;amp; nota4 &amp;gt;= 4)&amp;nbsp;&lt;/font&gt;&lt;/b&gt;&lt;/div&gt;&lt;div&gt;&lt;b&gt;&lt;font face=&quot;Comic Sans MS&quot; color=&quot;#000000&quot;&gt;||&amp;nbsp;&amp;nbsp;&lt;/font&gt;&lt;/b&gt;&lt;/div&gt;&lt;div&gt;&lt;b&gt;&lt;font face=&quot;Comic Sans MS&quot; color=&quot;#000000&quot;&gt;(nota1 &amp;gt;= 4 &amp;amp;&amp;amp; nota2 &amp;gt;= 4 &amp;amp;&amp;amp; nota4 &amp;gt;=4)&amp;nbsp;&lt;/font&gt;&lt;/b&gt;&lt;/div&gt;&lt;div&gt;&lt;b&gt;&lt;font face=&quot;Comic Sans MS&quot; color=&quot;#000000&quot;&gt;&amp;nbsp; ||&amp;nbsp; &amp;nbsp;&lt;/font&gt;&lt;/b&gt;&lt;/div&gt;&lt;div&gt;&lt;b&gt;&lt;font face=&quot;Comic Sans MS&quot; color=&quot;#000000&quot;&gt;&amp;nbsp;(nota2 &amp;gt;= 4 &amp;amp;&amp;amp; nota3 &amp;gt;= 4 &amp;amp;&amp;amp; nota4 &amp;gt;= 4)&amp;nbsp;&amp;nbsp;&lt;/font&gt;&lt;/b&gt;&lt;/div&gt;" style="text;whiteSpace=wrap;html=1;fontFamily=Architects Daughter;fontSource=https%3A%2F%2Ffonts.googleapis.com%2Fcss%3Ffamily%3DArchitects%2BDaughter;align=center;aspect=fixed;" vertex="1" parent="_jDsAqriuLOLaJhzw_Vn-16">
          <mxGeometry x="67" y="110" width="280" height="130" as="geometry" />
        </mxCell>
        <mxCell id="_jDsAqriuLOLaJhzw_Vn-18" value="" style="group;aspect=fixed;" vertex="1" connectable="0" parent="_jDsAqriuLOLaJhzw_Vn-57">
          <mxGeometry x="650" y="580" width="200" height="180" as="geometry" />
        </mxCell>
        <mxCell id="_jDsAqriuLOLaJhzw_Vn-12" value="" style="rhombus;whiteSpace=wrap;html=1;rounded=0;labelBackgroundColor=none;strokeColor=#0F140C;strokeWidth=2;align=center;verticalAlign=middle;fontFamily=Helvetica;fontSize=12;fontColor=default;fillColor=#d5e8d4;aspect=fixed;" vertex="1" parent="_jDsAqriuLOLaJhzw_Vn-18">
          <mxGeometry width="200" height="180" as="geometry" />
        </mxCell>
        <mxCell id="_jDsAqriuLOLaJhzw_Vn-17" value="&lt;b&gt;&lt;font color=&quot;#000000&quot; face=&quot;Comic Sans MS&quot; style=&quot;font-size: 12px;&quot;&gt;nota1 &amp;gt;= 4&lt;/font&gt;&lt;/b&gt;&lt;div&gt;&lt;b&gt;&lt;font color=&quot;#000000&quot; face=&quot;Comic Sans MS&quot; style=&quot;font-size: 12px;&quot;&gt;||&lt;/font&gt;&lt;/b&gt;&lt;/div&gt;&lt;div&gt;&lt;b&gt;&lt;font color=&quot;#000000&quot; face=&quot;Comic Sans MS&quot; style=&quot;font-size: 12px;&quot;&gt;nota2 &amp;gt;= 4&lt;/font&gt;&lt;/b&gt;&lt;/div&gt;&lt;div&gt;&lt;b&gt;&lt;font color=&quot;#000000&quot; face=&quot;Comic Sans MS&quot; style=&quot;font-size: 12px;&quot;&gt;||&lt;/font&gt;&lt;/b&gt;&lt;/div&gt;&lt;div&gt;&lt;b&gt;&lt;font color=&quot;#000000&quot; face=&quot;Comic Sans MS&quot; style=&quot;font-size: 12px;&quot;&gt;nota3 &amp;gt;= 4&lt;/font&gt;&lt;/b&gt;&lt;/div&gt;&lt;div&gt;&lt;font face=&quot;Comic Sans MS&quot; color=&quot;#000000&quot;&gt;&lt;b&gt;||&lt;/b&gt;&lt;/font&gt;&lt;/div&gt;&lt;div&gt;&lt;font face=&quot;Comic Sans MS&quot; color=&quot;#000000&quot;&gt;&lt;b&gt;nota4 &amp;gt;= 4&lt;/b&gt;&lt;/font&gt;&lt;/div&gt;" style="text;strokeColor=none;align=center;fillColor=none;html=1;verticalAlign=middle;whiteSpace=wrap;rounded=0;fontFamily=Architects Daughter;fontSource=https%3A%2F%2Ffonts.googleapis.com%2Fcss%3Ffamily%3DArchitects%2BDaughter;aspect=fixed;" vertex="1" parent="_jDsAqriuLOLaJhzw_Vn-18">
          <mxGeometry x="55" y="35" width="90" height="120" as="geometry" />
        </mxCell>
        <mxCell id="_jDsAqriuLOLaJhzw_Vn-22" value="" style="group;aspect=fixed;" vertex="1" connectable="0" parent="_jDsAqriuLOLaJhzw_Vn-57">
          <mxGeometry x="90" y="580" width="180" height="45" as="geometry" />
        </mxCell>
        <mxCell id="_jDsAqriuLOLaJhzw_Vn-11" value="" style="shape=trapezoid;perimeter=trapezoidPerimeter;whiteSpace=wrap;html=1;fixedSize=1;rounded=0;labelBackgroundColor=none;strokeColor=#0F140C;strokeWidth=2;align=center;verticalAlign=middle;fontFamily=Helvetica;fontSize=12;fontColor=default;fillColor=#d5e8d4;aspect=fixed;" vertex="1" parent="_jDsAqriuLOLaJhzw_Vn-22">
          <mxGeometry width="180" height="45" as="geometry" />
        </mxCell>
        <mxCell id="_jDsAqriuLOLaJhzw_Vn-21" value="&lt;b&gt;&lt;font style=&quot;font-size: 14px;&quot; color=&quot;#000000&quot; face=&quot;Comic Sans MS&quot;&gt;rinde_examen_final&lt;/font&gt;&lt;/b&gt;" style="text;strokeColor=none;align=center;fillColor=none;html=1;verticalAlign=middle;whiteSpace=wrap;rounded=0;fontFamily=Architects Daughter;fontSource=https%3A%2F%2Ffonts.googleapis.com%2Fcss%3Ffamily%3DArchitects%2BDaughter;aspect=fixed;" vertex="1" parent="_jDsAqriuLOLaJhzw_Vn-22">
          <mxGeometry x="15" y="7.5" width="150" height="30" as="geometry" />
        </mxCell>
        <mxCell id="_jDsAqriuLOLaJhzw_Vn-26" value="" style="group;aspect=fixed;" vertex="1" connectable="0" parent="_jDsAqriuLOLaJhzw_Vn-57">
          <mxGeometry x="500" y="740" width="167.29999999999995" height="40" as="geometry" />
        </mxCell>
        <mxCell id="_jDsAqriuLOLaJhzw_Vn-19" value="" style="shape=trapezoid;perimeter=trapezoidPerimeter;whiteSpace=wrap;html=1;fixedSize=1;rounded=0;labelBackgroundColor=none;strokeColor=#0F140C;strokeWidth=2;align=center;verticalAlign=middle;fontFamily=Helvetica;fontSize=12;fontColor=default;fillColor=#d5e8d4;aspect=fixed;" vertex="1" parent="_jDsAqriuLOLaJhzw_Vn-26">
          <mxGeometry width="167.3" height="40" as="geometry" />
        </mxCell>
        <mxCell id="_jDsAqriuLOLaJhzw_Vn-24" value="&lt;b&gt;&lt;font color=&quot;#000000&quot; style=&quot;font-size: 14px;&quot; face=&quot;Comic Sans MS&quot;&gt;recupera_parciales&lt;/font&gt;&lt;/b&gt;" style="text;strokeColor=none;align=center;fillColor=none;html=1;verticalAlign=middle;whiteSpace=wrap;rounded=0;fontFamily=Architects Daughter;fontSource=https%3A%2F%2Ffonts.googleapis.com%2Fcss%3Ffamily%3DArchitects%2BDaughter;aspect=fixed;" vertex="1" parent="_jDsAqriuLOLaJhzw_Vn-26">
          <mxGeometry x="17.299999999999955" y="5" width="140" height="30" as="geometry" />
        </mxCell>
        <mxCell id="_jDsAqriuLOLaJhzw_Vn-27" value="" style="group;aspect=fixed;" vertex="1" connectable="0" parent="_jDsAqriuLOLaJhzw_Vn-57">
          <mxGeometry x="840" y="740" width="170" height="40" as="geometry" />
        </mxCell>
        <mxCell id="_jDsAqriuLOLaJhzw_Vn-20" value="" style="shape=trapezoid;perimeter=trapezoidPerimeter;whiteSpace=wrap;html=1;fixedSize=1;rounded=0;labelBackgroundColor=none;strokeColor=#0F140C;strokeWidth=2;align=center;verticalAlign=middle;fontFamily=Helvetica;fontSize=12;fontColor=default;fillColor=#d5e8d4;aspect=fixed;" vertex="1" parent="_jDsAqriuLOLaJhzw_Vn-27">
          <mxGeometry width="170" height="40" as="geometry" />
        </mxCell>
        <mxCell id="_jDsAqriuLOLaJhzw_Vn-25" value="&lt;b&gt;&lt;font color=&quot;#000000&quot; style=&quot;font-size: 14px;&quot; face=&quot;Comic Sans MS&quot;&gt;recursa_materia&lt;/font&gt;&lt;/b&gt;" style="text;strokeColor=none;align=center;fillColor=none;html=1;verticalAlign=middle;whiteSpace=wrap;rounded=0;fontFamily=Architects Daughter;fontSource=https://fonts.googleapis.com/css?family=Architects+Daughter;aspect=fixed;" vertex="1" parent="_jDsAqriuLOLaJhzw_Vn-27">
          <mxGeometry x="20" y="5" width="140" height="30" as="geometry" />
        </mxCell>
        <mxCell id="_jDsAqriuLOLaJhzw_Vn-28" value="" style="line;strokeWidth=2;direction=south;html=1;hachureGap=4;fontFamily=Architects Daughter;fontSource=https://fonts.googleapis.com/css?family=Architects+Daughter;strokeColor=#000000;aspect=fixed;" vertex="1" parent="_jDsAqriuLOLaJhzw_Vn-57">
          <mxGeometry x="927" y="780" width="10" height="50" as="geometry" />
        </mxCell>
        <mxCell id="_jDsAqriuLOLaJhzw_Vn-29" value="" style="line;strokeWidth=2;direction=south;html=1;hachureGap=4;fontFamily=Architects Daughter;fontSource=https://fonts.googleapis.com/css?family=Architects+Daughter;strokeColor=#000000;aspect=fixed;" vertex="1" parent="_jDsAqriuLOLaJhzw_Vn-57">
          <mxGeometry x="177" y="625" width="10" height="255" as="geometry" />
        </mxCell>
        <mxCell id="_jDsAqriuLOLaJhzw_Vn-30" value="" style="line;strokeWidth=2;direction=south;html=1;hachureGap=4;fontFamily=Architects Daughter;fontSource=https://fonts.googleapis.com/css?family=Architects+Daughter;strokeColor=#000000;aspect=fixed;" vertex="1" parent="_jDsAqriuLOLaJhzw_Vn-57">
          <mxGeometry x="70" y="350" width="10" height="590" as="geometry" />
        </mxCell>
        <mxCell id="_jDsAqriuLOLaJhzw_Vn-31" value="" style="line;strokeWidth=2;direction=south;html=1;hachureGap=4;fontFamily=Architects Daughter;fontSource=https://fonts.googleapis.com/css?family=Architects+Daughter;strokeColor=#000000;aspect=fixed;" vertex="1" parent="_jDsAqriuLOLaJhzw_Vn-57">
          <mxGeometry x="578.65" y="780" width="10" height="50" as="geometry" />
        </mxCell>
        <mxCell id="_jDsAqriuLOLaJhzw_Vn-32" value="" style="line;strokeWidth=2;direction=south;html=1;hachureGap=4;fontFamily=Architects Daughter;fontSource=https://fonts.googleapis.com/css?family=Architects+Daughter;strokeColor=#000000;aspect=fixed;" vertex="1" parent="_jDsAqriuLOLaJhzw_Vn-57">
          <mxGeometry x="580" y="670" width="10" height="70" as="geometry" />
        </mxCell>
        <mxCell id="_jDsAqriuLOLaJhzw_Vn-33" value="" style="line;strokeWidth=2;direction=south;html=1;hachureGap=4;fontFamily=Architects Daughter;fontSource=https://fonts.googleapis.com/css?family=Architects+Daughter;strokeColor=#000000;aspect=fixed;" vertex="1" parent="_jDsAqriuLOLaJhzw_Vn-57">
          <mxGeometry x="177" y="503" width="10" height="77" as="geometry" />
        </mxCell>
        <mxCell id="_jDsAqriuLOLaJhzw_Vn-34" value="" style="line;strokeWidth=2;direction=south;html=1;hachureGap=4;fontFamily=Architects Daughter;fontSource=https://fonts.googleapis.com/css?family=Architects+Daughter;strokeColor=#000000;aspect=fixed;" vertex="1" parent="_jDsAqriuLOLaJhzw_Vn-57">
          <mxGeometry x="235" y="110" width="10" height="30" as="geometry" />
        </mxCell>
        <mxCell id="_jDsAqriuLOLaJhzw_Vn-35" value="" style="line;strokeWidth=2;direction=south;html=1;hachureGap=4;fontFamily=Architects Daughter;fontSource=https://fonts.googleapis.com/css?family=Architects+Daughter;strokeColor=#000000;aspect=fixed;" vertex="1" parent="_jDsAqriuLOLaJhzw_Vn-57">
          <mxGeometry x="70" y="233" width="10" height="77" as="geometry" />
        </mxCell>
        <mxCell id="_jDsAqriuLOLaJhzw_Vn-37" value="" style="line;strokeWidth=2;direction=south;html=1;hachureGap=4;fontFamily=Architects Daughter;fontSource=https://fonts.googleapis.com/css?family=Architects+Daughter;strokeColor=#000000;aspect=fixed;" vertex="1" parent="_jDsAqriuLOLaJhzw_Vn-57">
          <mxGeometry x="453.65" y="233" width="10" height="100" as="geometry" />
        </mxCell>
        <mxCell id="_jDsAqriuLOLaJhzw_Vn-38" value="" style="line;strokeWidth=2;direction=south;html=1;hachureGap=4;fontFamily=Architects Daughter;fontSource=https://fonts.googleapis.com/css?family=Architects+Daughter;strokeColor=#000000;aspect=fixed;" vertex="1" parent="_jDsAqriuLOLaJhzw_Vn-57">
          <mxGeometry x="235" y="940" width="10" height="40" as="geometry" />
        </mxCell>
        <mxCell id="_jDsAqriuLOLaJhzw_Vn-39" value="" style="line;strokeWidth=2;direction=south;html=1;hachureGap=4;fontFamily=Architects Daughter;fontSource=https://fonts.googleapis.com/css?family=Architects+Daughter;strokeColor=#000000;aspect=fixed;" vertex="1" parent="_jDsAqriuLOLaJhzw_Vn-57">
          <mxGeometry x="927" y="670" width="10" height="70" as="geometry" />
        </mxCell>
        <mxCell id="_jDsAqriuLOLaJhzw_Vn-40" value="" style="line;strokeWidth=2;direction=south;html=1;hachureGap=4;fontFamily=Architects Daughter;fontSource=https://fonts.googleapis.com/css?family=Architects+Daughter;strokeColor=#000000;aspect=fixed;" vertex="1" parent="_jDsAqriuLOLaJhzw_Vn-57">
          <mxGeometry x="745" y="503" width="10" height="80" as="geometry" />
        </mxCell>
        <mxCell id="_jDsAqriuLOLaJhzw_Vn-41" value="" style="line;strokeWidth=2;direction=south;html=1;hachureGap=4;fontFamily=Architects Daughter;fontSource=https://fonts.googleapis.com/css?family=Architects+Daughter;strokeColor=#000000;aspect=fixed;" vertex="1" parent="_jDsAqriuLOLaJhzw_Vn-57">
          <mxGeometry x="745" y="830" width="10" height="50" as="geometry" />
        </mxCell>
        <mxCell id="_jDsAqriuLOLaJhzw_Vn-42" value="" style="line;strokeWidth=2;html=1;perimeter=backbonePerimeter;points=[];outlineConnect=0;hachureGap=4;fontFamily=Architects Daughter;fontSource=https://fonts.googleapis.com/css?family=Architects+Daughter;strokeColor=#000000;aspect=fixed;" vertex="1" parent="_jDsAqriuLOLaJhzw_Vn-57">
          <mxGeometry x="657.3" y="500" width="92.7" height="10" as="geometry" />
        </mxCell>
        <mxCell id="_jDsAqriuLOLaJhzw_Vn-44" value="" style="line;strokeWidth=2;html=1;perimeter=backbonePerimeter;points=[];outlineConnect=0;hachureGap=4;fontFamily=Architects Daughter;fontSource=https://fonts.googleapis.com/css?family=Architects+Daughter;strokeColor=#000000;aspect=fixed;" vertex="1" parent="_jDsAqriuLOLaJhzw_Vn-57">
          <mxGeometry x="180" y="877" width="568" height="10" as="geometry" />
        </mxCell>
        <mxCell id="_jDsAqriuLOLaJhzw_Vn-45" value="" style="line;strokeWidth=2;html=1;perimeter=backbonePerimeter;points=[];outlineConnect=0;hachureGap=4;fontFamily=Architects Daughter;fontSource=https://fonts.googleapis.com/css?family=Architects+Daughter;strokeColor=#000000;aspect=fixed;" vertex="1" parent="_jDsAqriuLOLaJhzw_Vn-57">
          <mxGeometry x="850" y="666" width="80" height="10" as="geometry" />
        </mxCell>
        <mxCell id="_jDsAqriuLOLaJhzw_Vn-46" value="" style="line;strokeWidth=2;html=1;perimeter=backbonePerimeter;points=[];outlineConnect=0;hachureGap=4;fontFamily=Architects Daughter;fontSource=https://fonts.googleapis.com/css?family=Architects+Daughter;strokeColor=#000000;aspect=fixed;" vertex="1" parent="_jDsAqriuLOLaJhzw_Vn-57">
          <mxGeometry x="580" y="666" width="72" height="10" as="geometry" />
        </mxCell>
        <mxCell id="_jDsAqriuLOLaJhzw_Vn-47" value="" style="line;strokeWidth=2;html=1;perimeter=backbonePerimeter;points=[];outlineConnect=0;hachureGap=4;fontFamily=Architects Daughter;fontSource=https://fonts.googleapis.com/css?family=Architects+Daughter;strokeColor=#000000;aspect=fixed;" vertex="1" parent="_jDsAqriuLOLaJhzw_Vn-57">
          <mxGeometry x="581.65" y="826" width="348.35" height="10" as="geometry" />
        </mxCell>
        <mxCell id="_jDsAqriuLOLaJhzw_Vn-48" value="" style="line;strokeWidth=2;html=1;perimeter=backbonePerimeter;points=[];outlineConnect=0;hachureGap=4;fontFamily=Architects Daughter;fontSource=https://fonts.googleapis.com/css?family=Architects+Daughter;strokeColor=#000000;aspect=fixed;" vertex="1" parent="_jDsAqriuLOLaJhzw_Vn-57">
          <mxGeometry x="72" y="933" width="378" height="10" as="geometry" />
        </mxCell>
        <mxCell id="_jDsAqriuLOLaJhzw_Vn-51" value="" style="line;strokeWidth=2;html=1;perimeter=backbonePerimeter;points=[];outlineConnect=0;hachureGap=4;fontFamily=Architects Daughter;fontSource=https://fonts.googleapis.com/css?family=Architects+Daughter;strokeColor=#000000;aspect=fixed;" vertex="1" parent="_jDsAqriuLOLaJhzw_Vn-57">
          <mxGeometry x="180" y="500" width="80" height="10" as="geometry" />
        </mxCell>
        <mxCell id="_jDsAqriuLOLaJhzw_Vn-52" value="" style="line;strokeWidth=2;html=1;perimeter=backbonePerimeter;points=[];outlineConnect=0;hachureGap=4;fontFamily=Architects Daughter;fontSource=https://fonts.googleapis.com/css?family=Architects+Daughter;strokeColor=#000000;aspect=fixed;" vertex="1" parent="_jDsAqriuLOLaJhzw_Vn-57">
          <mxGeometry x="330" y="230" width="130" height="10" as="geometry" />
        </mxCell>
        <mxCell id="_jDsAqriuLOLaJhzw_Vn-53" value="" style="line;strokeWidth=2;html=1;perimeter=backbonePerimeter;points=[];outlineConnect=0;hachureGap=4;fontFamily=Architects Daughter;fontSource=https://fonts.googleapis.com/css?family=Architects+Daughter;strokeColor=#000000;aspect=fixed;" vertex="1" parent="_jDsAqriuLOLaJhzw_Vn-57">
          <mxGeometry x="70" y="230" width="80" height="10" as="geometry" />
        </mxCell>
        <mxCell id="_jDsAqriuLOLaJhzw_Vn-56" value="" style="line;strokeWidth=2;direction=south;html=1;hachureGap=4;fontFamily=Architects Daughter;fontSource=https://fonts.googleapis.com/css?family=Architects+Daughter;strokeColor=#000000;aspect=fixed;" vertex="1" parent="_jDsAqriuLOLaJhzw_Vn-57">
          <mxGeometry x="443.65" y="880" width="10" height="60" as="geometry" />
        </mxCell>
      </root>
    </mxGraphModel>
  </diagram>
</mxfile>
